<svg width="38" height="41" viewBox="0 0 38 41" fill="none" xmlns="http://www.w3.org/2000/svg">
<path d="M8.82002 41H36.44C36.6449 41 36.8477 40.9596 37.037 40.8813C37.2263 40.8029 37.3982 40.6879 37.5431 40.5431C37.688 40.3982 37.8029 40.2263 37.8813 40.037C37.9597 39.8477 38 39.6449 38 39.44V1.56C38 1.35514 37.9597 1.15228 37.8813 0.963014C37.8029 0.773746 37.688 0.601773 37.5431 0.456913C37.3982 0.312054 37.2263 0.197145 37.037 0.118748C36.8477 0.0403506 36.6449 0 36.44 0H1.56002C1.14628 0 0.749491 0.164357 0.456934 0.456913C0.164377 0.74947 2.05518e-05 1.14626 2.05518e-05 1.56V32.18C-0.00104189 32.3863 0.0390984 32.5908 0.118088 32.7814C0.197078 32.972 0.313328 33.1449 0.460021 33.29L7.71002 40.5C7.85171 40.6539 8.02311 40.7776 8.21388 40.8635C8.40464 40.9495 8.61083 40.9959 8.82002 41ZM26 37H21V32H17V37H13V29H26V37ZM9.00002 4H29V22H9.00002V4Z" fill="#FF8202"/>
</svg>
